#N canvas 867 61 1043 882 10;
#X obj 167 578 dac~;
#N canvas 0 22 450 278 (subpatch) 0;
#X array array1 200 float 1;
#A 0 0 0 0 0 0 0 0 0 0 0 0 0 0 0 0 0 0 0 0 0 0 0 0 0 0 0 0 0 0 0 0
0 0 0 0 0 0 0 0 0 0 0 0 0 0 0 0 0 0 0 0 0 0 0 0 0 0 0 0 0 0 0 0 0 0
0 0 0 0 0 0 0 0 0 0 0 0 0 0 0 0 0 0 0 0 0 0 0 0 0 0 0 0 0 0 0 0 0 0
0 0 0 0 0 0 0 0 0 0 0 0 0 0 0 0 0 0 0 0 0 0 0 0 0 0 0 0 0 0 0 0 0 0
0 0 0 0 0 0 0 0 0 0 0 0 0 0 0 0 0 0 0 0 0 0 0 0 0 0 0 0 0 0 0 0 0 0
0 0 0 0 0 0 0 0 0 0 0 0 0 0 0 0 0 0 0 0 0 0 0 0 0 0 0 0 0 0 0 0 0;
#X coords 0 1 199 -1 200 140 1 0 0;
#X restore 712 475 graph;
#X obj 225 524 tgl 15 0 empty empty empty 17 7 0 10 -262144 -1 -1 0
1;
#X obj 225 544 metro 100;
#X obj 225 578 tabwrite~ array1;
#X obj 944 359 tgl 15 0 empty empty empty 17 7 0 10 -262144 -1 -1 0
1;
#X floatatom 944 433 5 0 0 0 - - -;
#X obj 944 381 * -2;
#X obj 944 406 + 1;
#X obj 944 339 bng 15 250 50 0 empty empty empty 17 7 0 10 -262144
-1 -1;
#X floatatom 22 -97 5 0 0 0 - - -;
#X obj 22 291 *~ 0.7;
#X obj 22 326 *~;
#X obj 81 295 tgl 15 0 empty empty On/Off 17 7 0 10 -262144 -1 -1 0
1;
#X obj 22 -70 mtof;
#X floatatom 126 23 8 0 0 1 Pitch - -;
#X obj 46 363 hsl 128 15 0 127 0 0 empty empty empty -2 -8 0 10 -262144
-1 -1 0 1;
#X obj 43 387 mtof;
#X obj 22 413 lop~;
#X obj 126 -7 * -1;
#X floatatom 81 247 5 0 0 1 Volume - -;
#X obj 81 266 / 100;
#X obj 126 134 phasor~;
#X obj 126 156 *~ 2;
#X obj 126 178 -~ 1;
#X obj 126 200 clip~ 0 1;
#X obj 22 262 +~;
#X obj 22 134 phasor~;
#X obj 22 156 *~ 2;
#X obj 22 178 -~ 1;
#X obj 22 200 clip~ 0 1;
#X msg 139 78 0;
#X floatatom 22 -6 5 0 0 1 Detune - -;
#X obj 22 74 +;
#X floatatom 43 102 8 0 0 0 - - -;
#X floatatom 43 48 8 0 0 0 - - -;
#X obj 22 19 * 0.1;
#X floatatom 111 327 5 0 0 1 Low_Pass - -;
#X text 166 79 Reset Phase;
#X text 57 -96 Pitch;
#X text 72 135 OSC 1;
#X text 178 135 OSC 2;
#X obj 22 -35 bng 15 250 50 0 empty empty empty 17 7 0 10 -262144 -1
-1;
#X floatatom 79 554 5 0 100 1 Volume - -;
#X obj 79 577 / 100;
#X obj 365 537 bng 15 250 50 0 empty empty empty 17 7 0 10 -262144
-1 -1;
#X obj 126 222 r init;
#X obj 365 557 s init;
#X obj 46 -36 r init;
#X msg 170 222 70;
#X obj 126 272 r init;
#X msg 171 272 127;
#X obj 23 -131 r init;
#X msg 67 -131 60;
#X floatatom 252 -97 5 0 0 0 - - -;
#X obj 252 291 *~ 0.7;
#X obj 252 326 *~;
#X obj 311 295 tgl 15 0 empty empty On/Off 17 7 0 10 -262144 -1 -1
0 1;
#X obj 252 -70 mtof;
#X floatatom 356 23 8 0 0 1 Pitch - -;
#X obj 276 363 hsl 128 15 0 127 0 0 empty empty empty -2 -8 0 10 -262144
-1 -1 0 1;
#X obj 273 387 mtof;
#X obj 252 413 lop~;
#X obj 356 -7 * -1;
#X floatatom 311 247 5 0 0 1 Volume - -;
#X obj 311 266 / 100;
#X obj 356 134 phasor~;
#X obj 356 156 *~ 2;
#X obj 356 178 -~ 1;
#X obj 356 200 clip~ 0 1;
#X obj 252 262 +~;
#X obj 252 134 phasor~;
#X obj 252 156 *~ 2;
#X obj 252 178 -~ 1;
#X obj 252 200 clip~ 0 1;
#X msg 369 78 0;
#X floatatom 252 -6 5 0 0 1 Detune - -;
#X obj 252 74 +;
#X floatatom 273 102 8 0 0 0 - - -;
#X floatatom 273 48 8 0 0 0 - - -;
#X obj 252 19 * 0.1;
#X floatatom 341 327 5 0 0 1 Low_Pass - -;
#X text 396 79 Reset Phase;
#X text 287 -96 Pitch;
#X text 302 135 OSC 1;
#X text 408 135 OSC 2;
#X obj 252 -35 bng 15 250 50 0 empty empty empty 17 7 0 10 -262144
-1 -1;
#X obj 356 222 r init;
#X obj 276 -36 r init;
#X msg 400 222 70;
#X obj 356 272 r init;
#X msg 401 272 127;
#X obj 253 -131 r init;
#X floatatom 482 -97 5 0 0 0 - - -;
#X obj 482 291 *~ 0.7;
#X obj 482 326 *~;
#X obj 541 295 tgl 15 0 empty empty On/Off 17 7 0 10 -262144 -1 -1
0 1;
#X obj 482 -70 mtof;
#X floatatom 586 23 8 0 0 1 Pitch - -;
#X obj 506 363 hsl 128 15 0 127 0 0 empty empty empty -2 -8 0 10 -262144
-1 -1 0 1;
#X obj 503 387 mtof;
#X obj 482 413 lop~;
#X obj 586 -7 * -1;
#X floatatom 541 247 5 0 0 1 Volume - -;
#X obj 541 266 / 100;
#X obj 586 134 phasor~;
#X obj 586 156 *~ 2;
#X obj 586 178 -~ 1;
#X obj 586 200 clip~ 0 1;
#X obj 482 262 +~;
#X obj 482 134 phasor~;
#X obj 482 156 *~ 2;
#X obj 482 178 -~ 1;
#X obj 482 200 clip~ 0 1;
#X msg 599 78 0;
#X floatatom 482 -6 5 0 0 1 Detune - -;
#X obj 482 74 +;
#X floatatom 503 102 8 0 0 0 - - -;
#X floatatom 503 48 8 0 0 0 - - -;
#X obj 482 19 * 0.1;
#X floatatom 571 327 5 0 0 1 Low_Pass - -;
#X text 626 79 Reset Phase;
#X text 517 -96 Pitch;
#X text 532 135 OSC 1;
#X text 638 135 OSC 2;
#X obj 482 -35 bng 15 250 50 0 empty empty empty 17 7 0 10 -262144
-1 -1;
#X obj 586 222 r init;
#X obj 506 -36 r init;
#X msg 630 222 70;
#X obj 586 272 r init;
#X msg 631 272 127;
#X obj 483 -131 r init;
#X floatatom 713 -97 5 0 0 0 - - -;
#X obj 713 291 *~ 0.7;
#X obj 713 326 *~;
#X obj 772 295 tgl 15 0 empty empty On/Off 17 7 0 10 -262144 -1 -1
0 1;
#X obj 713 -70 mtof;
#X floatatom 817 23 8 0 0 1 Pitch - -;
#X obj 737 363 hsl 128 15 0 127 0 0 empty empty empty -2 -8 0 10 -262144
-1 -1 0 1;
#X obj 734 387 mtof;
#X obj 713 413 lop~;
#X obj 817 -7 * -1;
#X floatatom 772 247 5 0 0 1 Volume - -;
#X obj 772 266 / 100;
#X obj 817 134 phasor~;
#X obj 817 156 *~ 2;
#X obj 817 178 -~ 1;
#X obj 817 200 clip~ 0 1;
#X obj 713 262 +~;
#X obj 713 134 phasor~;
#X obj 713 156 *~ 2;
#X obj 713 178 -~ 1;
#X obj 713 200 clip~ 0 1;
#X msg 830 78 0;
#X floatatom 713 -6 5 0 0 1 Detune - -;
#X obj 713 74 +;
#X floatatom 734 102 8 0 0 0 - - -;
#X floatatom 734 48 8 0 0 0 - - -;
#X obj 713 19 * 0.1;
#X floatatom 802 327 5 0 0 1 Low_Pass - -;
#X text 857 79 Reset Phase;
#X text 748 -96 Pitch;
#X text 763 135 OSC 1;
#X text 869 135 OSC 2;
#X obj 713 -35 bng 15 250 50 0 empty empty empty 17 7 0 10 -262144
-1 -1;
#X obj 817 222 r init;
#X obj 737 -36 r init;
#X msg 861 222 70;
#X obj 817 272 r init;
#X msg 862 272 127;
#X obj 714 -131 r init;
#X msg 297 -131 63;
#X msg 527 -131 67;
#X msg 758 -131 72;
#X msg 781 -36 0;
#X msg 550 -36 0;
#X msg 320 -36 0;
#X msg 90 -36 0;
#X obj 78 522 r init;
#X msg 123 522 50;
#X obj 168 523 *~;
#X obj 24 -205 OSC/unpackOSC;
#X obj 24 -233 iemnet/udpreceive 9002;
#X obj 308 -193 OSC/routeOSC /p1 /tune1 /lop1 /vol1 /p2 /tune2 /lop2
/vol2 /p3 /tune3 /lop3 /vol3 /p4 /tune4 /lop4 /vol4;
#X connect 2 0 3 0;
#X connect 3 0 4 0;
#X connect 5 0 7 0;
#X connect 7 0 8 0;
#X connect 8 0 6 0;
#X connect 9 0 5 0;
#X connect 10 0 14 0;
#X connect 11 0 12 0;
#X connect 12 0 18 0;
#X connect 13 0 12 1;
#X connect 14 0 19 0;
#X connect 14 0 42 0;
#X connect 15 0 33 1;
#X connect 15 0 22 0;
#X connect 16 0 17 0;
#X connect 17 0 18 1;
#X connect 18 0 180 0;
#X connect 19 0 15 0;
#X connect 20 0 21 0;
#X connect 21 0 11 1;
#X connect 22 0 23 0;
#X connect 23 0 24 0;
#X connect 24 0 25 0;
#X connect 25 0 26 1;
#X connect 26 0 11 0;
#X connect 27 0 28 0;
#X connect 28 0 29 0;
#X connect 29 0 30 0;
#X connect 30 0 26 0;
#X connect 31 0 27 1;
#X connect 31 0 22 1;
#X connect 32 0 36 0;
#X connect 33 0 34 0;
#X connect 33 0 27 0;
#X connect 36 0 33 0;
#X connect 36 0 35 0;
#X connect 37 0 16 0;
#X connect 42 0 32 0;
#X connect 43 0 44 0;
#X connect 44 0 180 1;
#X connect 45 0 47 0;
#X connect 46 0 49 0;
#X connect 48 0 177 0;
#X connect 49 0 20 0;
#X connect 50 0 51 0;
#X connect 51 0 37 0;
#X connect 52 0 53 0;
#X connect 53 0 10 0;
#X connect 54 0 58 0;
#X connect 55 0 56 0;
#X connect 56 0 62 0;
#X connect 57 0 56 1;
#X connect 58 0 63 0;
#X connect 58 0 86 0;
#X connect 59 0 77 1;
#X connect 59 0 66 0;
#X connect 60 0 61 0;
#X connect 61 0 62 1;
#X connect 62 0 180 0;
#X connect 63 0 59 0;
#X connect 64 0 65 0;
#X connect 65 0 55 1;
#X connect 66 0 67 0;
#X connect 67 0 68 0;
#X connect 68 0 69 0;
#X connect 69 0 70 1;
#X connect 70 0 55 0;
#X connect 71 0 72 0;
#X connect 72 0 73 0;
#X connect 73 0 74 0;
#X connect 74 0 70 0;
#X connect 75 0 71 1;
#X connect 75 0 66 1;
#X connect 76 0 80 0;
#X connect 77 0 78 0;
#X connect 77 0 71 0;
#X connect 80 0 77 0;
#X connect 80 0 79 0;
#X connect 81 0 60 0;
#X connect 86 0 76 0;
#X connect 87 0 89 0;
#X connect 88 0 176 0;
#X connect 89 0 64 0;
#X connect 90 0 91 0;
#X connect 91 0 81 0;
#X connect 92 0 171 0;
#X connect 93 0 97 0;
#X connect 94 0 95 0;
#X connect 95 0 101 0;
#X connect 96 0 95 1;
#X connect 97 0 102 0;
#X connect 97 0 125 0;
#X connect 98 0 116 1;
#X connect 98 0 105 0;
#X connect 99 0 100 0;
#X connect 100 0 101 1;
#X connect 101 0 180 0;
#X connect 102 0 98 0;
#X connect 103 0 104 0;
#X connect 104 0 94 1;
#X connect 105 0 106 0;
#X connect 106 0 107 0;
#X connect 107 0 108 0;
#X connect 108 0 109 1;
#X connect 109 0 94 0;
#X connect 110 0 111 0;
#X connect 111 0 112 0;
#X connect 112 0 113 0;
#X connect 113 0 109 0;
#X connect 114 0 110 1;
#X connect 114 0 105 1;
#X connect 115 0 119 0;
#X connect 116 0 117 0;
#X connect 116 0 110 0;
#X connect 119 0 116 0;
#X connect 119 0 118 0;
#X connect 120 0 99 0;
#X connect 125 0 115 0;
#X connect 126 0 128 0;
#X connect 127 0 175 0;
#X connect 128 0 103 0;
#X connect 129 0 130 0;
#X connect 130 0 120 0;
#X connect 131 0 172 0;
#X connect 132 0 136 0;
#X connect 133 0 134 0;
#X connect 134 0 140 0;
#X connect 135 0 134 1;
#X connect 136 0 141 0;
#X connect 136 0 164 0;
#X connect 137 0 155 1;
#X connect 137 0 144 0;
#X connect 138 0 139 0;
#X connect 139 0 140 1;
#X connect 140 0 180 0;
#X connect 141 0 137 0;
#X connect 142 0 143 0;
#X connect 143 0 133 1;
#X connect 144 0 145 0;
#X connect 145 0 146 0;
#X connect 146 0 147 0;
#X connect 147 0 148 1;
#X connect 148 0 133 0;
#X connect 149 0 150 0;
#X connect 150 0 151 0;
#X connect 151 0 152 0;
#X connect 152 0 148 0;
#X connect 153 0 149 1;
#X connect 153 0 144 1;
#X connect 154 0 158 0;
#X connect 155 0 156 0;
#X connect 155 0 149 0;
#X connect 158 0 155 0;
#X connect 158 0 157 0;
#X connect 159 0 138 0;
#X connect 164 0 154 0;
#X connect 165 0 167 0;
#X connect 166 0 174 0;
#X connect 167 0 142 0;
#X connect 168 0 169 0;
#X connect 169 0 159 0;
#X connect 170 0 173 0;
#X connect 171 0 54 0;
#X connect 172 0 93 0;
#X connect 173 0 132 0;
#X connect 174 0 154 0;
#X connect 175 0 115 0;
#X connect 176 0 76 0;
#X connect 177 0 32 0;
#X connect 178 0 179 0;
#X connect 179 0 43 0;
#X connect 180 0 4 0;
#X connect 180 0 0 0;
#X connect 180 0 0 1;
#X connect 181 0 183 0;
#X connect 182 0 181 0;
#X connect 183 0 10 0;
#X connect 183 1 32 0;
#X connect 183 2 37 0;
#X connect 183 3 20 0;
#X connect 183 4 54 0;
#X connect 183 5 76 0;
#X connect 183 6 81 0;
#X connect 183 7 64 0;
