#N canvas 717 67 843 594 10;
#X obj 863 150 loadbang;
#X obj 863 191 delay 100;
#X msg 863 219 \; pd dsp 1 \;;
#X obj 863 150 loadbang;
#X obj 863 191 delay 100;
#X msg 863 219 \; pd dsp 1 \;;
#X obj 189 81 loadbang;
#X msg 189 180 \; pd dsp \$1 \;;
#X obj 188 135 delay 100;
#X obj 328 158 r test_signal;
#X obj 327 196 print;
#X msg 95 256 500;
#X obj 95 278 s test_signal;
#X connect 0 0 1 0;
#X connect 1 0 2 0;
#X connect 3 0 4 0;
#X connect 4 0 5 0;
#X connect 6 0 8 0;
#X connect 8 0 7 0;
#X connect 8 0 11 0;
#X connect 9 0 10 0;
#X connect 11 0 12 0;
