#N canvas 131 68 450 300 10;
#X obj 91 85 OSC/unpackOSC;
#X obj 91 32 iemnet/udpreceive 9001;
#X obj 91 135 OSC/routeOSC /address;
#X obj 93 186 print;
#X connect 0 0 2 0;
#X connect 1 0 0 0;
#X connect 2 0 3 0;
