#N canvas 641 22 1028 714 10;
#X obj -122 -6 hsl 128 15 0 127 0 0 empty empty empty -2 -8 0 10 -262144
-1 -1 5700 1;
#X obj 500 601 dac~;
#X obj -125 27 mtof;
#X obj -36 31 nbx 5 14 -1e+37 1e+37 0 0 empty empty empty 0 -8 0 10
-262144 -1 -1 18 256;
#X obj -36 67 / 100;
#X obj -36 89 osc~;
#X obj -36 112 abs~;
#X obj 573 528 tgl 15 0 empty empty empty 17 7 0 10 -262144 -1 -1 1
1;
#X obj 573 548 metro 100;
#X obj 569 598 tabwrite~ pwm;
#N canvas 0 22 450 278 (subpatch) 0;
#X array pwm 200 float 1;
#A 0 0 0 0 0 0 0 0 0 0 0 0 0 0 0 0 0 0 0 0 0 0 0 0 0 0 0 0 0 0 0 0
0 0 0 0 0 0 0 0 0 0 0 0 0 0 0 0 0 0 0 0 0 0 0 0 0 0 0 0 0 0 0 0 0 0
0 0 0 0 0 0 0 0 0 0 0 0 0 0 0 0 0 0 0 0 0 0 0 0 0 0 0 0 0 0 0 0 0 0
0 0 0 0 0 0 0 0 0 0 0 0 0 0 0 0 0 0 0 0 0 0 0 0 0 0 0 0 0 0 0 0 0 0
0 0 0 0 0 0 0 0 0 0 0 0 0 0 0 0 0 0 0 0 0 0 0 0 0 0 0 0 0 0 0 0 0 0
0 0 0 0 0 0 0 0 0 0 0 0 0 0 0 0 0 0 0 0 0 0 0 0 0 0 0 0 0 0 0 0 0;
#X coords 0 2 199 -2 200 140 1 0 0;
#X restore 647 -21 graph;
#X obj -113 73 nbx 5 14 -1e+37 1e+37 0 0 empty empty empty 0 -8 0 10
-262144 -1 -1 40 256;
#X obj -113 100 / 100;
#X obj 653 238 hsl 128 15 -20 20 0 0 empty empty empty -2 -8 0 10 -262144
-1 -1 6350 1;
#X obj 650 377 *~;
#X obj 503 517 *~;
#X obj 731 343 hsl 50 15 0 1 0 0 empty empty empty -2 -8 0 10 -262144
-1 -1 4900 1;
#X obj -125 -47 nbx 5 14 -1e+37 1e+37 0 0 empty empty empty 0 -8 0
10 -262144 -1 -1 61 256;
#X obj -125 49 osc~;
#X obj -124 183 expr~ $v1 > $v2;
#X obj 687 395 tgl 15 0 empty empty empty 17 7 0 10 -262144 -1 -1 1
1;
#X obj 650 419 *~;
#X obj 2 112 tgl 15 0 empty empty empty 17 7 0 10 -262144 -1 -1 1 1
;
#X obj -36 141 *~;
#X obj -113 131 *;
#X obj -69 102 tgl 15 0 empty empty empty 17 7 0 10 -262144 -1 -1 0
1;
#X obj 49 -3 hsl 128 15 0 127 0 0 empty empty empty -2 -8 0 10 -262144
-1 -1 6400 1;
#X obj 46 30 mtof;
#X obj 135 34 nbx 5 14 -1e+37 1e+37 0 0 empty empty empty 0 -8 0 10
-262144 -1 -1 36 256;
#X obj 135 70 / 100;
#X obj 135 92 osc~;
#X obj 135 115 abs~;
#X obj 58 76 nbx 5 14 -1e+37 1e+37 0 0 empty empty empty 0 -8 0 10
-262144 -1 -1 0 256;
#X obj 58 103 / 100;
#X obj 46 -44 nbx 5 14 -1e+37 1e+37 0 0 empty empty empty 0 -8 0 10
-262144 -1 -1 64 256;
#X obj 46 52 osc~;
#X obj 47 186 expr~ $v1 > $v2;
#X obj 173 115 tgl 15 0 empty empty empty 17 7 0 10 -262144 -1 -1 0
1;
#X obj 135 144 *~;
#X obj 58 134 *;
#X obj 102 105 tgl 15 0 empty empty empty 17 7 0 10 -262144 -1 -1 0
1;
#X obj 212 -4 hsl 128 15 0 127 0 0 empty empty empty -2 -8 0 10 -262144
-1 -1 6700 1;
#X obj 209 29 mtof;
#X obj 298 33 nbx 5 14 -1e+37 1e+37 0 0 empty empty empty 0 -8 0 10
-262144 -1 -1 36 256;
#X obj 298 69 / 100;
#X obj 298 91 osc~;
#X obj 298 114 abs~;
#X obj 221 75 nbx 5 14 -1e+37 1e+37 0 0 empty empty empty 0 -8 0 10
-262144 -1 -1 0 256;
#X obj 221 102 / 100;
#X obj 209 -45 nbx 5 14 -1e+37 1e+37 0 0 empty empty empty 0 -8 0 10
-262144 -1 -1 67 256;
#X obj 209 51 osc~;
#X obj 210 185 expr~ $v1 > $v2;
#X obj 336 114 tgl 15 0 empty empty empty 17 7 0 10 -262144 -1 -1 0
1;
#X obj 298 143 *~;
#X obj 221 133 *;
#X obj 265 104 tgl 15 0 empty empty empty 17 7 0 10 -262144 -1 -1 0
1;
#X obj 384 -4 hsl 128 15 0 127 0 0 empty empty empty -2 -8 0 10 -262144
-1 -1 7300 1;
#X obj 381 29 mtof;
#X obj 470 33 nbx 5 14 -1e+37 1e+37 0 0 empty empty empty 0 -8 0 10
-262144 -1 -1 0 256;
#X obj 470 69 / 100;
#X obj 470 91 osc~;
#X obj 470 114 abs~;
#X obj 393 75 nbx 5 14 -1e+37 1e+37 0 0 empty empty empty 0 -8 0 10
-262144 -1 -1 0 256;
#X obj 393 102 / 100;
#X obj 381 -45 nbx 5 14 -1e+37 1e+37 0 0 empty empty empty 0 -8 0 10
-262144 -1 -1 73 256;
#X obj 381 51 osc~;
#X obj 382 185 expr~ $v1 > $v2;
#X obj 508 114 tgl 15 0 empty empty empty 17 7 0 10 -262144 -1 -1 0
1;
#X obj 470 143 *~;
#X obj 393 133 *;
#X obj 437 104 tgl 15 0 empty empty empty 17 7 0 10 -262144 -1 -1 0
1;
#X obj -109 238 tgl 15 0 empty empty empty 17 7 0 10 -262144 -1 -1
0 1;
#X obj -124 267 *~;
#X obj 61 236 tgl 15 0 empty empty empty 17 7 0 10 -262144 -1 -1 0
1;
#X obj 46 265 *~;
#X obj 223 233 tgl 15 0 empty empty empty 17 7 0 10 -262144 -1 -1 0
1;
#X obj 208 262 *~;
#X obj 398 234 tgl 15 0 empty empty empty 17 7 0 10 -262144 -1 -1 0
1;
#X obj 383 263 *~;
#X obj 650 279 phasor~;
#X obj 484 356 hsl 128 15 0 127 0 0 empty empty empty -2 -8 0 10 -262144
-1 -1 5300 1;
#X obj 481 390 mtof;
#X obj 460 421 lop~;
#X msg 650 196 0;
#X obj 650 331 lop~;
#X obj 721 276 nbx 5 14 -1e+37 1e+37 0 0 empty empty empty 0 -8 0 10
-262144 -1 -1 218 256;
#X obj 721 295 / 10;
#X obj 67 420 *~ 2;
#X obj 67 448 z~ 64;
#X obj 67 477 *~;
#X connect 0 0 2 0;
#X connect 2 0 18 0;
#X connect 3 0 4 0;
#X connect 4 0 5 0;
#X connect 5 0 6 0;
#X connect 6 0 23 0;
#X connect 7 0 8 0;
#X connect 8 0 9 0;
#X connect 11 0 12 0;
#X connect 12 0 24 0;
#X connect 13 0 79 0;
#X connect 14 0 21 0;
#X connect 15 0 1 0;
#X connect 15 0 1 1;
#X connect 15 0 9 0;
#X connect 16 0 14 1;
#X connect 17 0 0 0;
#X connect 18 0 19 0;
#X connect 19 0 72 0;
#X connect 20 0 21 1;
#X connect 21 0 15 1;
#X connect 22 0 23 1;
#X connect 23 0 19 1;
#X connect 24 0 19 1;
#X connect 25 0 24 1;
#X connect 26 0 27 0;
#X connect 27 0 35 0;
#X connect 28 0 29 0;
#X connect 29 0 30 0;
#X connect 30 0 31 0;
#X connect 31 0 38 0;
#X connect 32 0 33 0;
#X connect 33 0 39 0;
#X connect 34 0 26 0;
#X connect 35 0 36 0;
#X connect 36 0 74 0;
#X connect 37 0 38 1;
#X connect 38 0 36 1;
#X connect 39 0 36 1;
#X connect 40 0 39 1;
#X connect 41 0 42 0;
#X connect 42 0 50 0;
#X connect 43 0 44 0;
#X connect 44 0 45 0;
#X connect 45 0 46 0;
#X connect 46 0 53 0;
#X connect 47 0 48 0;
#X connect 48 0 54 0;
#X connect 49 0 41 0;
#X connect 50 0 51 0;
#X connect 51 0 76 0;
#X connect 52 0 53 1;
#X connect 53 0 51 1;
#X connect 54 0 51 1;
#X connect 55 0 54 1;
#X connect 56 0 57 0;
#X connect 57 0 65 0;
#X connect 58 0 59 0;
#X connect 59 0 60 0;
#X connect 60 0 61 0;
#X connect 61 0 68 0;
#X connect 62 0 63 0;
#X connect 63 0 69 0;
#X connect 64 0 56 0;
#X connect 65 0 66 0;
#X connect 66 0 78 0;
#X connect 67 0 68 1;
#X connect 68 0 66 1;
#X connect 69 0 66 1;
#X connect 70 0 69 1;
#X connect 71 0 72 1;
#X connect 72 0 82 0;
#X connect 73 0 74 1;
#X connect 74 0 82 0;
#X connect 75 0 76 1;
#X connect 76 0 82 0;
#X connect 77 0 78 1;
#X connect 78 0 82 0;
#X connect 79 0 84 0;
#X connect 80 0 81 0;
#X connect 81 0 82 1;
#X connect 82 0 15 0;
#X connect 83 0 13 0;
#X connect 84 0 14 0;
#X connect 85 0 86 0;
#X connect 86 0 84 1;
#X connect 87 0 88 0;
#X connect 88 0 89 0;
