#N canvas 440 25 1130 934 10;
#N canvas 0 22 450 278 (subpatch) 0;
#X array array2 200 float 1;
#A 0 0 0 0 0 0 0 0 0 0 0 0 0 0 0 0 0 0 0 0 0 0 0 0 0 0 0 0 0 0 0 0
0 0 0 0 0 0 0 0 0 0 0 0 0 0 0 0 0 0 0 0 0 0 0 0 0 0 0 0 0 0 0 0 0 0
0 0 0 0 0 0 0 0 0 0 0 0 0 0 0 0 0 0 0 0 0 0 0 0 0 0 0 0 0 0 0 0 0 0
0 0 0 0 0 0 0 0 0 0 0 0 0 0 0 0 0 0 0 0 0 0 0 0 0 0 0 0 0 0 0 0 0 0
0 0 0 0 0 0 0 0 0 0 0 0 0 0 0 0 0 0 0 0 0 0 0 0 0 0 0 0 0 0 0 0 0 0
0 0 0 0 0 0 0 0 0 0 0 0 0 0 0 0 0 0 0 0 0 0 0 0 0 0 0 0 0 0 0 0 0;
#X coords 0 1 199 -1 200 140 1 0 0;
#X restore 803 531 graph;
#X obj 1035 415 tgl 15 0 empty empty empty 17 7 0 10 -262144 -1 -1
0 1;
#X floatatom 1035 489 5 0 0 0 - - -;
#X obj 1035 437 * -2;
#X obj 1035 462 + 1;
#X obj 1035 395 bng 15 250 50 0 empty empty empty 17 7 0 10 -262144
-1 -1;
#X obj 736 368 hsl 128 15 0 127 0 0 empty empty empty -2 -8 0 10 -262144
-1 -1 12700 1;
#X obj 733 392 mtof;
#X obj 712 435 lop~;
#X floatatom 801 332 5 0 0 1 Low_Pass - -;
#X obj 816 277 r init;
#X msg 861 277 127;
#X obj 319 697 dac~;
#X obj 377 643 tgl 15 0 empty empty empty 17 7 0 10 -262144 -1 -1 1
1;
#X obj 377 663 metro 100;
#X floatatom 45 -155 5 0 0 0 - - -;
#X obj 44 528 *~ 0.7;
#X obj 44 563 *~;
#X obj 72 564 tgl 15 0 empty empty On/Off 17 7 0 10 -262144 -1 -1 0
1;
#X obj 45 -128 mtof;
#X floatatom 180 -65 8 0 0 1 Pitch - -;
#X obj 149 -65 * -1;
#X floatatom 113 518 5 0 0 1 Volume - -;
#X obj 113 537 / 100;
#X obj 191 250 phasor~;
#X obj 191 275 *~ 2;
#X obj 191 297 -~ 1;
#X obj 191 319 clip~ 0 1;
#X obj 111 346 +~;
#X obj 111 250 phasor~;
#X obj 111 275 *~ 2;
#X obj 111 297 -~ 1;
#X obj 111 319 clip~ 0 1;
#X msg 230 222 0;
#X floatatom 45 -62 5 0 0 1 Detune - -;
#X obj 45 16 +;
#X floatatom 70 17 8 0 0 0 - - -;
#X floatatom 66 -10 8 0 0 0 - - -;
#X obj 45 -39 * 0.1;
#X text 255 223 Reset Phase;
#X text 80 -154 Pitch;
#X obj 45 -93 bng 15 250 50 0 empty empty empty 17 7 0 10 -262144 -1
-1;
#X floatatom 231 673 5 0 100 1 Volume - -;
#X obj 231 696 / 100;
#X obj 517 656 bng 15 250 50 0 empty empty empty 17 7 0 10 -262144
-1 -1;
#X obj 113 493 r init;
#X obj 517 676 s init;
#X obj 69 -94 r init;
#X msg 155 493 70;
#X obj 46 -189 r init;
#X msg 90 -189 60;
#X msg 113 -94 0;
#X obj 230 641 r init;
#X msg 275 641 50;
#X obj 320 642 *~;
#X msg 170 -128 -1;
#X msg 200 -105 1;
#X obj 159 -181 bng 15 250 50 0 empty empty empty 17 7 0 10 -262144
-1 -1;
#X obj 377 697 tabwrite~ array2;
#X obj 45 236 +~;
#X floatatom 60 381 5 0 100 0 - - -;
#X obj 45 462 *~;
#X obj 60 403 / 100;
#X obj 117 463 *~;
#X floatatom 72 463 5 0 0 0 - - -;
#X floatatom 145 464 5 0 0 0 - - -;
#X obj 44 497 +~;
#X obj 98 432 expr 1-$f1;
#X obj 191 54 phasor~;
#X obj 191 126 *~ 2;
#X obj 191 148 -~ 1;
#X obj 191 170 clip~ 0 1;
#X obj 191 206 +~;
#X obj 265 82 *~ -1;
#X obj 265 103 +~ 1;
#X obj 265 125 *~ 2;
#X obj 265 147 -~ 1;
#X obj 265 169 clip~ 0 1;
#X obj 45 55 phasor~;
#X obj 45 127 *~ 2;
#X obj 45 149 -~ 1;
#X obj 45 171 clip~ 0 1;
#X obj 45 207 +~;
#X obj 119 83 *~ -1;
#X obj 119 104 +~ 1;
#X obj 119 126 *~ 2;
#X obj 119 148 -~ 1;
#X obj 119 170 clip~ 0 1;
#X msg 203 13 0;
#X text 228 14 Reset Phase;
#X obj 104 379 r init;
#X msg 146 379 50;
#X floatatom 359 -157 5 0 0 0 - - -;
#X obj 358 416 *~ 0.7;
#X obj 358 451 *~;
#X obj 386 452 tgl 15 0 empty empty On/Off 17 7 0 10 -262144 -1 -1
0 1;
#X obj 359 -130 mtof;
#X floatatom 536 -37 8 0 0 1 Pitch - -;
#X obj 505 -37 * -1;
#X floatatom 427 406 5 0 0 1 Volume - -;
#X obj 427 425 / 100;
#X obj 431 234 +~;
#X floatatom 359 -64 5 0 0 1 Detune - -;
#X obj 359 14 +;
#X floatatom 384 15 8 0 0 0 - - -;
#X floatatom 380 -12 8 0 0 0 - - -;
#X obj 359 -41 * 0.1;
#X text 394 -156 Pitch;
#X obj 359 -95 bng 15 250 50 0 empty empty empty 17 7 0 10 -262144
-1 -1;
#X obj 427 381 r init;
#X obj 383 -96 r init;
#X msg 469 381 70;
#X obj 360 -191 r init;
#X msg 404 -191 60;
#X msg 427 -96 0;
#X msg 526 -100 -1;
#X msg 556 -77 1;
#X obj 473 -183 bng 15 250 50 0 empty empty empty 17 7 0 10 -262144
-1 -1;
#X obj 359 234 +~;
#X floatatom 454 269 5 0 100 0 - - -;
#X obj 359 350 *~;
#X obj 454 291 / 100;
#X obj 431 351 *~;
#X floatatom 386 351 5 0 0 0 - - -;
#X floatatom 459 352 5 0 0 0 - - -;
#X obj 358 385 +~;
#X obj 454 322 expr 1-$f1;
#X obj 505 52 phasor~;
#X obj 505 124 *~ 2;
#X obj 505 146 -~ 1;
#X obj 505 168 clip~ 0 1;
#X obj 505 198 +~;
#X obj 579 80 *~ -1;
#X obj 579 101 +~ 1;
#X obj 579 123 *~ 2;
#X obj 579 145 -~ 1;
#X obj 579 167 clip~ 0 1;
#X obj 359 53 phasor~;
#X obj 359 125 *~ 2;
#X obj 359 147 -~ 1;
#X obj 359 169 clip~ 0 1;
#X obj 359 199 +~;
#X obj 433 81 *~ -1;
#X obj 433 102 +~ 1;
#X obj 433 124 *~ 2;
#X obj 433 146 -~ 1;
#X obj 433 168 clip~ 0 1;
#X msg 517 11 0;
#X text 542 12 Reset Phase;
#X obj 477 239 r init;
#X msg 519 239 50;
#X connect 1 0 3 0;
#X connect 3 0 4 0;
#X connect 4 0 2 0;
#X connect 5 0 1 0;
#X connect 6 0 7 0;
#X connect 7 0 8 1;
#X connect 9 0 6 0;
#X connect 10 0 11 0;
#X connect 11 0 9 0;
#X connect 13 0 14 0;
#X connect 14 0 58 0;
#X connect 15 0 19 0;
#X connect 16 0 17 0;
#X connect 17 0 54 0;
#X connect 18 0 17 1;
#X connect 19 0 21 0;
#X connect 19 0 41 0;
#X connect 21 0 20 0;
#X connect 21 0 35 1;
#X connect 21 0 68 0;
#X connect 21 0 24 0;
#X connect 22 0 23 0;
#X connect 23 0 16 1;
#X connect 24 0 25 0;
#X connect 25 0 26 0;
#X connect 26 0 27 0;
#X connect 27 0 28 1;
#X connect 28 0 63 0;
#X connect 29 0 30 0;
#X connect 30 0 31 0;
#X connect 31 0 32 0;
#X connect 32 0 28 0;
#X connect 33 0 29 1;
#X connect 33 0 24 1;
#X connect 34 0 38 0;
#X connect 35 0 36 0;
#X connect 35 0 29 0;
#X connect 35 0 78 0;
#X connect 38 0 35 0;
#X connect 38 0 37 0;
#X connect 41 0 34 0;
#X connect 42 0 43 0;
#X connect 43 0 54 1;
#X connect 44 0 46 0;
#X connect 45 0 48 0;
#X connect 47 0 51 0;
#X connect 48 0 22 0;
#X connect 49 0 50 0;
#X connect 50 0 15 0;
#X connect 51 0 34 0;
#X connect 52 0 53 0;
#X connect 53 0 42 0;
#X connect 54 0 12 0;
#X connect 54 0 12 1;
#X connect 54 0 58 0;
#X connect 55 0 21 1;
#X connect 56 0 21 1;
#X connect 57 0 15 0;
#X connect 59 0 61 0;
#X connect 60 0 62 0;
#X connect 61 0 66 0;
#X connect 62 0 61 1;
#X connect 62 0 64 0;
#X connect 62 0 67 0;
#X connect 63 0 66 1;
#X connect 66 0 16 0;
#X connect 67 0 63 1;
#X connect 67 0 65 0;
#X connect 68 0 69 0;
#X connect 68 0 73 0;
#X connect 69 0 70 0;
#X connect 70 0 71 0;
#X connect 71 0 72 0;
#X connect 72 0 59 1;
#X connect 73 0 74 0;
#X connect 74 0 75 0;
#X connect 75 0 76 0;
#X connect 76 0 77 0;
#X connect 77 0 72 1;
#X connect 78 0 79 0;
#X connect 78 0 83 0;
#X connect 79 0 80 0;
#X connect 80 0 81 0;
#X connect 81 0 82 0;
#X connect 82 0 59 0;
#X connect 83 0 84 0;
#X connect 84 0 85 0;
#X connect 85 0 86 0;
#X connect 86 0 87 0;
#X connect 87 0 82 1;
#X connect 88 0 68 1;
#X connect 88 0 78 1;
#X connect 90 0 91 0;
#X connect 91 0 60 0;
#X connect 92 0 96 0;
#X connect 93 0 94 0;
#X connect 94 0 54 0;
#X connect 95 0 94 1;
#X connect 96 0 98 0;
#X connect 96 0 108 0;
#X connect 98 0 97 0;
#X connect 98 0 103 1;
#X connect 98 0 127 0;
#X connect 99 0 100 0;
#X connect 100 0 93 1;
#X connect 101 0 122 0;
#X connect 102 0 106 0;
#X connect 103 0 104 0;
#X connect 103 0 137 0;
#X connect 106 0 103 0;
#X connect 106 0 105 0;
#X connect 108 0 102 0;
#X connect 109 0 111 0;
#X connect 110 0 114 0;
#X connect 111 0 99 0;
#X connect 112 0 113 0;
#X connect 113 0 92 0;
#X connect 114 0 102 0;
#X connect 115 0 98 1;
#X connect 116 0 98 1;
#X connect 117 0 92 0;
#X connect 118 0 120 0;
#X connect 119 0 121 0;
#X connect 120 0 125 0;
#X connect 121 0 120 1;
#X connect 121 0 123 0;
#X connect 121 0 126 0;
#X connect 122 0 125 1;
#X connect 125 0 93 0;
#X connect 126 0 122 1;
#X connect 126 0 124 0;
#X connect 127 0 128 0;
#X connect 127 0 132 0;
#X connect 128 0 129 0;
#X connect 129 0 130 0;
#X connect 130 0 131 0;
#X connect 130 0 101 0;
#X connect 131 0 118 1;
#X connect 132 0 133 0;
#X connect 133 0 134 0;
#X connect 134 0 135 0;
#X connect 135 0 136 0;
#X connect 136 0 131 1;
#X connect 137 0 138 0;
#X connect 137 0 142 0;
#X connect 138 0 139 0;
#X connect 139 0 140 0;
#X connect 140 0 141 0;
#X connect 140 0 101 0;
#X connect 141 0 118 0;
#X connect 142 0 143 0;
#X connect 143 0 144 0;
#X connect 144 0 145 0;
#X connect 145 0 146 0;
#X connect 146 0 141 1;
#X connect 147 0 127 1;
#X connect 147 0 137 1;
#X connect 149 0 150 0;
#X connect 150 0 119 0;
