#N canvas 31 68 1881 984 10;
#X obj 278 694 dac~;
#X floatatom 190 670 5 0 100 1 Volume - -;
#X obj 190 693 / 100;
#X obj 476 653 bng 15 250 50 0 empty empty empty 17 7 0 10 -262144
-1 -1;
#X obj 476 673 s init;
#X obj 189 638 r init;
#X msg 234 638 50;
#X obj 279 639 *~;
#X obj 24 -205 OSC/unpackOSC;
#X obj 24 -233 iemnet/udpreceive 9002;
#X floatatom 32 -109 5 0 0 0 - - -;
#X obj 31 464 *~ 0.7;
#X obj 31 499 *~;
#X obj 59 500 tgl 15 0 empty empty On/Off 17 7 0 10 -262144 -1 -1 0
1;
#X obj 32 -82 mtof;
#X floatatom 209 11 8 0 0 1 Pitch - -;
#X obj 178 11 * -1;
#X floatatom 100 454 5 0 0 1 Volume - -;
#X obj 100 473 / 100;
#X obj 104 282 +~;
#X floatatom 32 -16 5 0 0 1 Detune - -;
#X obj 32 62 +;
#X floatatom 57 63 8 0 0 0 - - -;
#X floatatom 53 36 8 0 0 0 - - -;
#X obj 32 7 * 0.1;
#X text 67 -108 Pitch;
#X obj 32 -47 bng 15 250 50 0 empty empty empty 17 7 0 10 -262144 -1
-1;
#X obj 100 429 r init;
#X obj 56 -48 r init;
#X msg 142 429 70;
#X obj 33 -143 r init;
#X msg 77 -143 60;
#X msg 100 -48 0;
#X msg 199 -52 -1;
#X msg 229 -29 1;
#X obj 146 -135 bng 15 250 50 0 empty empty empty 17 7 0 10 -262144
-1 -1;
#X obj 32 282 +~;
#X floatatom 127 317 5 0 100 0 - - -;
#X obj 32 398 *~;
#X obj 127 339 / 100;
#X obj 104 399 *~;
#X floatatom 59 399 5 0 0 0 - - -;
#X floatatom 132 400 5 0 0 0 - - -;
#X obj 31 433 +~;
#X obj 127 370 expr 1-$f1;
#X obj 178 100 phasor~;
#X obj 178 172 *~ 2;
#X obj 178 194 -~ 1;
#X obj 178 216 clip~ 0 1;
#X obj 178 246 +~;
#X obj 252 128 *~ -1;
#X obj 252 149 +~ 1;
#X obj 252 171 *~ 2;
#X obj 252 193 -~ 1;
#X obj 252 215 clip~ 0 1;
#X obj 32 101 phasor~;
#X obj 32 173 *~ 2;
#X obj 32 195 -~ 1;
#X obj 32 217 clip~ 0 1;
#X obj 32 247 +~;
#X obj 106 129 *~ -1;
#X obj 106 150 +~ 1;
#X obj 106 172 *~ 2;
#X obj 106 194 -~ 1;
#X obj 106 216 clip~ 0 1;
#X msg 190 59 0;
#X text 215 60 Reset Phase;
#X obj 150 287 r init;
#X msg 192 287 50;
#X obj 179 -183 unpack f f f f;
#X text 168 317 Mix;
#X floatatom 182 -126 5 0 0 0 - - -;
#X floatatom 198 -103 5 0 0 0 - - -;
#X floatatom 214 -83 5 0 0 0 - - -;
#X floatatom 239 -61 5 0 0 0 - - -;
#X obj 247 -217 OSC/routeOSC /n1 /n2 /n3 /n4 /n5 /n6;
#X connect 1 0 2 0;
#X connect 2 0 7 1;
#X connect 3 0 4 0;
#X connect 5 0 6 0;
#X connect 6 0 1 0;
#X connect 7 0 0 0;
#X connect 7 0 0 1;
#X connect 8 0 75 0;
#X connect 9 0 8 0;
#X connect 10 0 14 0;
#X connect 11 0 12 0;
#X connect 12 0 7 0;
#X connect 13 0 12 1;
#X connect 14 0 16 0;
#X connect 14 0 26 0;
#X connect 16 0 15 0;
#X connect 16 0 21 1;
#X connect 16 0 45 0;
#X connect 17 0 18 0;
#X connect 18 0 11 1;
#X connect 19 0 40 0;
#X connect 20 0 24 0;
#X connect 21 0 22 0;
#X connect 21 0 55 0;
#X connect 24 0 21 0;
#X connect 24 0 23 0;
#X connect 26 0 20 0;
#X connect 27 0 29 0;
#X connect 28 0 32 0;
#X connect 29 0 17 0;
#X connect 30 0 31 0;
#X connect 31 0 10 0;
#X connect 32 0 20 0;
#X connect 33 0 16 1;
#X connect 34 0 16 1;
#X connect 35 0 10 0;
#X connect 36 0 38 0;
#X connect 37 0 39 0;
#X connect 38 0 43 0;
#X connect 39 0 38 1;
#X connect 39 0 41 0;
#X connect 39 0 44 0;
#X connect 40 0 43 1;
#X connect 43 0 11 0;
#X connect 44 0 40 1;
#X connect 44 0 42 0;
#X connect 45 0 46 0;
#X connect 45 0 50 0;
#X connect 46 0 47 0;
#X connect 47 0 48 0;
#X connect 48 0 49 0;
#X connect 48 0 19 0;
#X connect 49 0 36 1;
#X connect 50 0 51 0;
#X connect 51 0 52 0;
#X connect 52 0 53 0;
#X connect 53 0 54 0;
#X connect 54 0 49 1;
#X connect 55 0 56 0;
#X connect 55 0 60 0;
#X connect 56 0 57 0;
#X connect 57 0 58 0;
#X connect 58 0 59 0;
#X connect 58 0 19 0;
#X connect 59 0 36 0;
#X connect 60 0 61 0;
#X connect 61 0 62 0;
#X connect 62 0 63 0;
#X connect 63 0 64 0;
#X connect 64 0 59 1;
#X connect 65 0 45 1;
#X connect 65 0 55 1;
#X connect 67 0 68 0;
#X connect 68 0 37 0;
#X connect 69 0 10 0;
#X connect 69 0 71 0;
#X connect 69 1 20 0;
#X connect 69 1 72 0;
#X connect 69 2 37 0;
#X connect 69 2 73 0;
#X connect 69 3 17 0;
#X connect 69 3 74 0;
#X connect 75 0 69 0;
