#N canvas 15 61 1680 984 10;
#X obj 278 694 dac~;
#X floatatom 190 670 5 0 100 1 Volume - -;
#X obj 190 693 / 100;
#X obj 476 653 bng 15 250 50 0 empty empty empty 17 7 0 10 -262144
-1 -1;
#X obj 476 673 s init;
#X obj 189 638 r init;
#X msg 234 638 50;
#X obj 279 639 *~;
#X obj 24 -205 OSC/unpackOSC;
#X obj 24 -233 iemnet/udpreceive 9002;
#X floatatom 32 -29 5 0 0 0 - - -;
#X obj 31 544 *~ 0.7;
#X obj 31 579 *~;
#X obj 59 580 tgl 15 0 empty empty On/Off 17 7 0 10 -262144 -1 -1 1
1;
#X obj 32 -2 mtof;
#X floatatom 209 91 8 0 0 1 Pitch - -;
#X obj 178 91 * -1;
#X floatatom 100 534 5 0 0 1 Volume - -;
#X obj 100 553 / 100;
#X obj 104 362 +~;
#X floatatom 32 64 5 0 0 1 Detune - -;
#X obj 32 142 +;
#X floatatom 57 143 8 0 0 0 - - -;
#X floatatom 53 116 8 0 0 0 - - -;
#X obj 32 87 * 0.1;
#X text 67 -28 Pitch;
#X obj 32 33 bng 15 250 50 0 empty empty empty 17 7 0 10 -262144 -1
-1;
#X obj 100 509 r init;
#X obj 56 32 r init;
#X msg 142 509 70;
#X obj 33 -63 r init;
#X msg 77 -63 60;
#X msg 100 32 0;
#X msg 199 28 -1;
#X msg 229 51 1;
#X obj 146 -55 bng 15 250 50 0 empty empty empty 17 7 0 10 -262144
-1 -1;
#X obj 32 362 +~;
#X floatatom 127 397 5 0 100 0 - - -;
#X obj 32 478 *~;
#X obj 127 419 / 100;
#X obj 104 479 *~;
#X floatatom 59 479 5 0 0 0 - - -;
#X floatatom 132 480 5 0 0 0 - - -;
#X obj 31 513 +~;
#X obj 127 450 expr 1-$f1;
#X obj 178 180 phasor~;
#X obj 178 252 *~ 2;
#X obj 178 274 -~ 1;
#X obj 178 296 clip~ 0 1;
#X obj 178 326 +~;
#X obj 252 208 *~ -1;
#X obj 252 229 +~ 1;
#X obj 252 251 *~ 2;
#X obj 252 273 -~ 1;
#X obj 252 295 clip~ 0 1;
#X obj 32 181 phasor~;
#X obj 32 253 *~ 2;
#X obj 32 275 -~ 1;
#X obj 32 297 clip~ 0 1;
#X obj 32 327 +~;
#X obj 106 209 *~ -1;
#X obj 106 230 +~ 1;
#X obj 106 252 *~ 2;
#X obj 106 274 -~ 1;
#X obj 106 296 clip~ 0 1;
#X msg 190 139 0;
#X text 215 140 Reset Phase;
#X obj 150 367 r init;
#X msg 192 367 50;
#X floatatom 328 -31 5 0 0 0 - - -;
#X obj 327 542 *~ 0.7;
#X obj 327 577 *~;
#X obj 355 578 tgl 15 0 empty empty On/Off 17 7 0 10 -262144 -1 -1
1 1;
#X obj 328 -4 mtof;
#X floatatom 505 89 8 0 0 1 Pitch - -;
#X obj 474 89 * -1;
#X floatatom 396 532 5 0 0 1 Volume - -;
#X obj 396 551 / 100;
#X obj 400 360 +~;
#X floatatom 328 62 5 0 0 1 Detune - -;
#X obj 328 140 +;
#X floatatom 353 141 8 0 0 0 - - -;
#X floatatom 349 114 8 0 0 0 - - -;
#X obj 328 85 * 0.1;
#X text 363 -30 Pitch;
#X obj 328 31 bng 15 250 50 0 empty empty empty 17 7 0 10 -262144 -1
-1;
#X obj 396 507 r init;
#X obj 352 30 r init;
#X msg 438 507 70;
#X obj 329 -65 r init;
#X msg 396 30 0;
#X msg 495 26 -1;
#X msg 525 49 1;
#X obj 442 -57 bng 15 250 50 0 empty empty empty 17 7 0 10 -262144
-1 -1;
#X obj 328 360 +~;
#X floatatom 423 395 5 0 100 0 - - -;
#X obj 328 476 *~;
#X obj 423 417 / 100;
#X obj 400 477 *~;
#X floatatom 355 477 5 0 0 0 - - -;
#X floatatom 428 478 5 0 0 0 - - -;
#X obj 327 511 +~;
#X obj 423 448 expr 1-$f1;
#X obj 474 178 phasor~;
#X obj 474 250 *~ 2;
#X obj 474 272 -~ 1;
#X obj 474 294 clip~ 0 1;
#X obj 474 324 +~;
#X obj 548 206 *~ -1;
#X obj 548 227 +~ 1;
#X obj 548 249 *~ 2;
#X obj 548 271 -~ 1;
#X obj 548 293 clip~ 0 1;
#X obj 328 179 phasor~;
#X obj 328 251 *~ 2;
#X obj 328 273 -~ 1;
#X obj 328 295 clip~ 0 1;
#X obj 328 325 +~;
#X obj 402 207 *~ -1;
#X obj 402 228 +~ 1;
#X obj 402 250 *~ 2;
#X obj 402 272 -~ 1;
#X obj 402 294 clip~ 0 1;
#X msg 486 137 0;
#X text 511 138 Reset Phase;
#X obj 446 365 r init;
#X msg 488 365 50;
#X floatatom 615 -33 5 0 0 0 - - -;
#X obj 614 540 *~ 0.7;
#X obj 614 575 *~;
#X obj 642 576 tgl 15 0 empty empty On/Off 17 7 0 10 -262144 -1 -1
1 1;
#X obj 615 -6 mtof;
#X floatatom 792 87 8 0 0 1 Pitch - -;
#X obj 761 87 * -1;
#X floatatom 683 530 5 0 0 1 Volume - -;
#X obj 683 549 / 100;
#X obj 687 358 +~;
#X floatatom 615 60 5 0 0 1 Detune - -;
#X obj 615 138 +;
#X floatatom 640 139 8 0 0 0 - - -;
#X floatatom 636 112 8 0 0 0 - - -;
#X obj 615 83 * 0.1;
#X text 650 -32 Pitch;
#X obj 615 29 bng 15 250 50 0 empty empty empty 17 7 0 10 -262144 -1
-1;
#X obj 683 505 r init;
#X obj 639 28 r init;
#X msg 725 505 70;
#X obj 616 -67 r init;
#X msg 683 28 0;
#X msg 782 24 -1;
#X msg 812 47 1;
#X obj 729 -59 bng 15 250 50 0 empty empty empty 17 7 0 10 -262144
-1 -1;
#X obj 615 358 +~;
#X floatatom 710 393 5 0 100 0 - - -;
#X obj 615 474 *~;
#X obj 710 415 / 100;
#X obj 687 475 *~;
#X floatatom 642 475 5 0 0 0 - - -;
#X floatatom 715 476 5 0 0 0 - - -;
#X obj 614 509 +~;
#X obj 710 446 expr 1-$f1;
#X obj 761 176 phasor~;
#X obj 761 248 *~ 2;
#X obj 761 270 -~ 1;
#X obj 761 292 clip~ 0 1;
#X obj 761 322 +~;
#X obj 835 204 *~ -1;
#X obj 835 225 +~ 1;
#X obj 835 247 *~ 2;
#X obj 835 269 -~ 1;
#X obj 835 291 clip~ 0 1;
#X obj 615 177 phasor~;
#X obj 615 249 *~ 2;
#X obj 615 271 -~ 1;
#X obj 615 293 clip~ 0 1;
#X obj 615 323 +~;
#X obj 689 205 *~ -1;
#X obj 689 226 +~ 1;
#X obj 689 248 *~ 2;
#X obj 689 270 -~ 1;
#X obj 689 292 clip~ 0 1;
#X msg 773 135 0;
#X text 798 136 Reset Phase;
#X obj 733 363 r init;
#X msg 775 363 50;
#X obj 53 -99 unpack f f f f;
#X text 168 397 Mix;
#X text 748 393 Mix;
#X text 464 395 Mix;
#X obj 315 -104 unpack f f f f;
#X obj 616 -104 unpack f f f f;
#X floatatom 920 -35 5 0 0 0 - - -;
#X obj 919 538 *~ 0.7;
#X obj 919 573 *~;
#X obj 947 574 tgl 15 0 empty empty On/Off 17 7 0 10 -262144 -1 -1
0 1;
#X obj 920 -8 mtof;
#X floatatom 1097 85 8 0 0 1 Pitch - -;
#X obj 1066 85 * -1;
#X floatatom 988 528 5 0 0 1 Volume - -;
#X obj 988 547 / 100;
#X obj 992 356 +~;
#X floatatom 920 58 5 0 0 1 Detune - -;
#X obj 920 136 +;
#X floatatom 945 137 8 0 0 0 - - -;
#X floatatom 941 110 8 0 0 0 - - -;
#X obj 920 81 * 0.1;
#X text 955 -34 Pitch;
#X obj 920 27 bng 15 250 50 0 empty empty empty 17 7 0 10 -262144 -1
-1;
#X obj 988 503 r init;
#X obj 944 26 r init;
#X msg 1030 503 70;
#X obj 921 -69 r init;
#X msg 965 -69 60;
#X msg 988 26 0;
#X msg 1087 22 -1;
#X msg 1117 45 1;
#X obj 1034 -61 bng 15 250 50 0 empty empty empty 17 7 0 10 -262144
-1 -1;
#X obj 920 356 +~;
#X floatatom 1015 391 5 0 100 0 - - -;
#X obj 920 472 *~;
#X obj 1015 413 / 100;
#X obj 992 473 *~;
#X floatatom 947 473 5 0 0 0 - - -;
#X floatatom 1020 474 5 0 0 0 - - -;
#X obj 919 507 +~;
#X obj 1015 444 expr 1-$f1;
#X obj 1066 174 phasor~;
#X obj 1066 246 *~ 2;
#X obj 1066 268 -~ 1;
#X obj 1066 290 clip~ 0 1;
#X obj 1066 320 +~;
#X obj 1140 202 *~ -1;
#X obj 1140 223 +~ 1;
#X obj 1140 245 *~ 2;
#X obj 1140 267 -~ 1;
#X obj 1140 289 clip~ 0 1;
#X obj 920 175 phasor~;
#X obj 920 247 *~ 2;
#X obj 920 269 -~ 1;
#X obj 920 291 clip~ 0 1;
#X obj 920 321 +~;
#X obj 994 203 *~ -1;
#X obj 994 224 +~ 1;
#X obj 994 246 *~ 2;
#X obj 994 268 -~ 1;
#X obj 994 290 clip~ 0 1;
#X msg 1078 133 0;
#X text 1103 134 Reset Phase;
#X obj 1038 361 r init;
#X msg 1080 361 50;
#X text 1053 391 Mix;
#X obj 921 -106 unpack f f f f;
#X floatatom 1211 -37 5 0 0 0 - - -;
#X obj 1210 536 *~ 0.7;
#X obj 1210 571 *~;
#X obj 1238 572 tgl 15 0 empty empty On/Off 17 7 0 10 -262144 -1 -1
0 1;
#X obj 1211 -10 mtof;
#X floatatom 1388 83 8 0 0 1 Pitch - -;
#X obj 1357 83 * -1;
#X floatatom 1279 526 5 0 0 1 Volume - -;
#X obj 1279 545 / 100;
#X obj 1283 354 +~;
#X floatatom 1211 56 5 0 0 1 Detune - -;
#X obj 1211 134 +;
#X floatatom 1236 135 8 0 0 0 - - -;
#X floatatom 1232 108 8 0 0 0 - - -;
#X obj 1211 79 * 0.1;
#X text 1246 -36 Pitch;
#X obj 1211 25 bng 15 250 50 0 empty empty empty 17 7 0 10 -262144
-1 -1;
#X obj 1279 501 r init;
#X obj 1235 24 r init;
#X msg 1321 501 70;
#X obj 1212 -71 r init;
#X msg 1256 -71 60;
#X msg 1279 24 0;
#X msg 1378 20 -1;
#X msg 1408 43 1;
#X obj 1325 -63 bng 15 250 50 0 empty empty empty 17 7 0 10 -262144
-1 -1;
#X obj 1211 354 +~;
#X floatatom 1306 389 5 0 100 0 - - -;
#X obj 1211 470 *~;
#X obj 1306 411 / 100;
#X obj 1283 471 *~;
#X floatatom 1238 471 5 0 0 0 - - -;
#X floatatom 1311 472 5 0 0 0 - - -;
#X obj 1210 505 +~;
#X obj 1306 442 expr 1-$f1;
#X obj 1357 172 phasor~;
#X obj 1357 244 *~ 2;
#X obj 1357 266 -~ 1;
#X obj 1357 288 clip~ 0 1;
#X obj 1357 318 +~;
#X obj 1431 200 *~ -1;
#X obj 1431 221 +~ 1;
#X obj 1431 243 *~ 2;
#X obj 1431 265 -~ 1;
#X obj 1431 287 clip~ 0 1;
#X obj 1211 173 phasor~;
#X obj 1211 245 *~ 2;
#X obj 1211 267 -~ 1;
#X obj 1211 289 clip~ 0 1;
#X obj 1211 319 +~;
#X obj 1285 201 *~ -1;
#X obj 1285 222 +~ 1;
#X obj 1285 244 *~ 2;
#X obj 1285 266 -~ 1;
#X obj 1285 288 clip~ 0 1;
#X msg 1369 131 0;
#X text 1394 132 Reset Phase;
#X obj 1329 359 r init;
#X msg 1371 359 50;
#X text 1344 389 Mix;
#X obj 1212 -108 unpack f f f f;
#X floatatom 1501 -39 5 0 0 0 - - -;
#X obj 1500 534 *~ 0.7;
#X obj 1500 569 *~;
#X obj 1528 570 tgl 15 0 empty empty On/Off 17 7 0 10 -262144 -1 -1
0 1;
#X obj 1501 -12 mtof;
#X floatatom 1678 81 8 0 0 1 Pitch - -;
#X obj 1647 81 * -1;
#X floatatom 1569 524 5 0 0 1 Volume - -;
#X obj 1569 543 / 100;
#X obj 1573 352 +~;
#X floatatom 1501 54 5 0 0 1 Detune - -;
#X obj 1501 132 +;
#X floatatom 1526 133 8 0 0 0 - - -;
#X floatatom 1522 106 8 0 0 0 - - -;
#X obj 1501 77 * 0.1;
#X text 1536 -38 Pitch;
#X obj 1501 23 bng 15 250 50 0 empty empty empty 17 7 0 10 -262144
-1 -1;
#X obj 1569 499 r init;
#X obj 1525 22 r init;
#X msg 1611 499 70;
#X obj 1502 -73 r init;
#X msg 1546 -73 60;
#X msg 1569 22 0;
#X msg 1668 18 -1;
#X msg 1698 41 1;
#X obj 1615 -65 bng 15 250 50 0 empty empty empty 17 7 0 10 -262144
-1 -1;
#X obj 1501 352 +~;
#X floatatom 1596 387 5 0 100 0 - - -;
#X obj 1501 468 *~;
#X obj 1596 409 / 100;
#X obj 1573 469 *~;
#X floatatom 1528 469 5 0 0 0 - - -;
#X floatatom 1601 470 5 0 0 0 - - -;
#X obj 1500 503 +~;
#X obj 1596 440 expr 1-$f1;
#X obj 1647 170 phasor~;
#X obj 1647 242 *~ 2;
#X obj 1647 264 -~ 1;
#X obj 1647 286 clip~ 0 1;
#X obj 1647 316 +~;
#X obj 1721 198 *~ -1;
#X obj 1721 219 +~ 1;
#X obj 1721 241 *~ 2;
#X obj 1721 263 -~ 1;
#X obj 1721 285 clip~ 0 1;
#X obj 1501 171 phasor~;
#X obj 1501 243 *~ 2;
#X obj 1501 265 -~ 1;
#X obj 1501 287 clip~ 0 1;
#X obj 1501 317 +~;
#X obj 1575 199 *~ -1;
#X obj 1575 220 +~ 1;
#X obj 1575 242 *~ 2;
#X obj 1575 264 -~ 1;
#X obj 1575 286 clip~ 0 1;
#X msg 1659 129 0;
#X text 1684 130 Reset Phase;
#X obj 1619 357 r init;
#X msg 1661 357 50;
#X text 1634 387 Mix;
#X obj 1502 -110 unpack f f f f;
#X obj 23 632 loadbang;
#X obj 23 658 delay 100;
#X obj 100 683 s init;
#X obj 122 580 r init;
#X obj 702 576 r init;
#X msg 373 -65 64;
#X msg 660 -67 67;
#X obj 411 577 r init;
#X msg 23 683 \; pd dsp 1 \;;
#X obj 534 655 bng 15 250 50 0 empty empty empty 17 7 0 10 -262144
-1 -1;
#X obj 534 675 s init;
#X obj 362 206;
#X floatatom 733 -245 5 -124 124 0 - - -;
#X obj 733 -168 expr pow(1.059463094 \, $f1);
#X obj 733 -208 moses 0;
#X obj 733 -188 * -1;
#X obj 772 -148 expr pow(1.059463094 \, $f1);
#X obj 276 -36 *;
#X floatatom 193 -14 5 0 0 0 - - -;
#X floatatom 276 -14 5 0 0 0 - - -;
#X obj 193 -36 expr $f2/$f1;
#X floatatom 262 -62 5 0 0 0 - - -;
#X obj 556 -36 *;
#X floatatom 473 -14 5 0 0 0 - - -;
#X floatatom 556 -14 5 0 0 0 - - -;
#X obj 473 -36 expr $f2/$f1;
#X floatatom 542 -62 5 0 0 0 - - -;
#X obj 856 -36 *;
#X floatatom 773 -14 5 0 0 0 - - -;
#X floatatom 856 -14 5 0 0 0 - - -;
#X obj 773 -36 expr $f2/$f1;
#X floatatom 842 -62 5 0 0 0 - - -;
#X obj 1146 -36 *;
#X floatatom 1063 -14 5 0 0 0 - - -;
#X floatatom 1146 -14 5 0 0 0 - - -;
#X obj 1063 -36 expr $f2/$f1;
#X floatatom 1132 -62 5 0 0 0 - - -;
#X obj 1436 -36 *;
#X floatatom 1353 -14 5 0 0 0 - - -;
#X floatatom 1436 -14 5 0 0 0 - - -;
#X obj 1353 -36 expr $f2/$f1;
#X floatatom 1422 -62 5 0 0 0 - - -;
#X obj 1726 -36 *;
#X floatatom 1643 -14 5 0 0 0 - - -;
#X floatatom 1726 -14 5 0 0 0 - - -;
#X obj 1643 -36 expr $f2/$f1;
#X floatatom 1712 -62 5 0 0 0 - - -;
#X obj 686 -244 bng 15 250 50 0 empty empty empty 17 7 0 10 -262144
-1 -1;
#X msg 879 -244 0;
#X obj 733 -228 / 62;
#X msg 791 -244 -124;
#X msg 919 -244 62;
#X msg 959 -244 124;
#X obj 879 -222 r init;
#X obj 250 -217 OSC/routeOSC /n1 /n2 /n3 /n4 /n5 /n6 /bend;
#X msg 831 -244 -62;
#X connect 1 0 2 0;
#X connect 2 0 7 1;
#X connect 3 0 4 0;
#X connect 5 0 6 0;
#X connect 6 0 1 0;
#X connect 7 0 0 0;
#X connect 7 0 0 1;
#X connect 8 0 428 0;
#X connect 9 0 8 0;
#X connect 10 0 14 0;
#X connect 10 0 421 0;
#X connect 11 0 12 0;
#X connect 12 0 7 0;
#X connect 13 0 12 1;
#X connect 14 0 395 0;
#X connect 16 0 15 0;
#X connect 16 0 21 1;
#X connect 16 0 45 0;
#X connect 17 0 18 0;
#X connect 18 0 11 1;
#X connect 19 0 40 0;
#X connect 20 0 24 0;
#X connect 21 0 22 0;
#X connect 21 0 55 0;
#X connect 24 0 21 0;
#X connect 24 0 23 0;
#X connect 26 0 20 0;
#X connect 27 0 29 0;
#X connect 28 0 32 0;
#X connect 29 0 17 0;
#X connect 30 0 31 0;
#X connect 31 0 10 0;
#X connect 32 0 20 0;
#X connect 33 0 16 1;
#X connect 34 0 16 1;
#X connect 35 0 10 0;
#X connect 36 0 38 0;
#X connect 37 0 39 0;
#X connect 38 0 43 0;
#X connect 39 0 38 1;
#X connect 39 0 41 0;
#X connect 39 0 44 0;
#X connect 40 0 43 1;
#X connect 43 0 11 0;
#X connect 44 0 40 1;
#X connect 44 0 42 0;
#X connect 45 0 46 0;
#X connect 45 0 50 0;
#X connect 46 0 47 0;
#X connect 47 0 48 0;
#X connect 48 0 49 0;
#X connect 48 0 19 0;
#X connect 49 0 36 1;
#X connect 50 0 51 0;
#X connect 51 0 52 0;
#X connect 52 0 53 0;
#X connect 53 0 54 0;
#X connect 54 0 49 1;
#X connect 55 0 56 0;
#X connect 55 0 60 0;
#X connect 56 0 57 0;
#X connect 57 0 58 0;
#X connect 58 0 59 0;
#X connect 58 0 19 0;
#X connect 59 0 36 0;
#X connect 60 0 61 0;
#X connect 61 0 62 0;
#X connect 62 0 63 0;
#X connect 63 0 64 0;
#X connect 64 0 59 1;
#X connect 65 0 45 1;
#X connect 65 0 55 1;
#X connect 67 0 68 0;
#X connect 68 0 37 0;
#X connect 69 0 73 0;
#X connect 69 0 421 0;
#X connect 70 0 71 0;
#X connect 71 0 7 0;
#X connect 72 0 71 1;
#X connect 73 0 400 0;
#X connect 75 0 74 0;
#X connect 75 0 80 1;
#X connect 75 0 103 0;
#X connect 76 0 77 0;
#X connect 77 0 70 1;
#X connect 78 0 98 0;
#X connect 79 0 83 0;
#X connect 80 0 81 0;
#X connect 80 0 113 0;
#X connect 83 0 80 0;
#X connect 83 0 82 0;
#X connect 85 0 79 0;
#X connect 86 0 88 0;
#X connect 87 0 90 0;
#X connect 88 0 76 0;
#X connect 89 0 379 0;
#X connect 90 0 79 0;
#X connect 91 0 75 1;
#X connect 92 0 75 1;
#X connect 93 0 69 0;
#X connect 94 0 96 0;
#X connect 95 0 97 0;
#X connect 96 0 101 0;
#X connect 97 0 96 1;
#X connect 97 0 99 0;
#X connect 97 0 102 0;
#X connect 98 0 101 1;
#X connect 101 0 70 0;
#X connect 102 0 98 1;
#X connect 102 0 100 0;
#X connect 103 0 104 0;
#X connect 103 0 108 0;
#X connect 104 0 105 0;
#X connect 105 0 106 0;
#X connect 106 0 107 0;
#X connect 106 0 78 0;
#X connect 107 0 94 1;
#X connect 108 0 109 0;
#X connect 109 0 110 0;
#X connect 110 0 111 0;
#X connect 111 0 112 0;
#X connect 112 0 107 1;
#X connect 113 0 114 0;
#X connect 113 0 118 0;
#X connect 114 0 115 0;
#X connect 115 0 116 0;
#X connect 116 0 117 0;
#X connect 116 0 78 0;
#X connect 117 0 94 0;
#X connect 118 0 119 0;
#X connect 119 0 120 0;
#X connect 120 0 121 0;
#X connect 121 0 122 0;
#X connect 122 0 117 1;
#X connect 123 0 103 1;
#X connect 123 0 113 1;
#X connect 125 0 126 0;
#X connect 126 0 95 0;
#X connect 127 0 131 0;
#X connect 127 0 421 0;
#X connect 128 0 129 0;
#X connect 129 0 7 0;
#X connect 130 0 129 1;
#X connect 131 0 405 0;
#X connect 133 0 132 0;
#X connect 133 0 138 1;
#X connect 133 0 161 0;
#X connect 134 0 135 0;
#X connect 135 0 128 1;
#X connect 136 0 156 0;
#X connect 137 0 141 0;
#X connect 138 0 139 0;
#X connect 138 0 171 0;
#X connect 141 0 138 0;
#X connect 141 0 140 0;
#X connect 143 0 137 0;
#X connect 144 0 146 0;
#X connect 145 0 148 0;
#X connect 146 0 134 0;
#X connect 147 0 380 0;
#X connect 148 0 137 0;
#X connect 149 0 133 1;
#X connect 150 0 133 1;
#X connect 151 0 127 0;
#X connect 152 0 154 0;
#X connect 153 0 155 0;
#X connect 154 0 159 0;
#X connect 155 0 154 1;
#X connect 155 0 157 0;
#X connect 155 0 160 0;
#X connect 156 0 159 1;
#X connect 159 0 128 0;
#X connect 160 0 156 1;
#X connect 160 0 158 0;
#X connect 161 0 162 0;
#X connect 161 0 166 0;
#X connect 162 0 163 0;
#X connect 163 0 164 0;
#X connect 164 0 165 0;
#X connect 164 0 136 0;
#X connect 165 0 152 1;
#X connect 166 0 167 0;
#X connect 167 0 168 0;
#X connect 168 0 169 0;
#X connect 169 0 170 0;
#X connect 170 0 165 1;
#X connect 171 0 172 0;
#X connect 171 0 176 0;
#X connect 172 0 173 0;
#X connect 173 0 174 0;
#X connect 174 0 175 0;
#X connect 174 0 136 0;
#X connect 175 0 152 0;
#X connect 176 0 177 0;
#X connect 177 0 178 0;
#X connect 178 0 179 0;
#X connect 179 0 180 0;
#X connect 180 0 175 1;
#X connect 181 0 161 1;
#X connect 181 0 171 1;
#X connect 183 0 184 0;
#X connect 184 0 153 0;
#X connect 185 0 10 0;
#X connect 185 1 20 0;
#X connect 185 2 37 0;
#X connect 185 3 17 0;
#X connect 189 0 69 0;
#X connect 189 1 79 0;
#X connect 189 2 95 0;
#X connect 189 3 76 0;
#X connect 190 0 127 0;
#X connect 190 1 137 0;
#X connect 190 2 153 0;
#X connect 190 3 134 0;
#X connect 191 0 195 0;
#X connect 191 0 421 0;
#X connect 192 0 193 0;
#X connect 193 0 7 0;
#X connect 194 0 193 1;
#X connect 195 0 410 0;
#X connect 197 0 196 0;
#X connect 197 0 202 1;
#X connect 197 0 226 0;
#X connect 198 0 199 0;
#X connect 199 0 192 1;
#X connect 200 0 221 0;
#X connect 201 0 205 0;
#X connect 202 0 203 0;
#X connect 202 0 236 0;
#X connect 205 0 202 0;
#X connect 205 0 204 0;
#X connect 207 0 201 0;
#X connect 208 0 210 0;
#X connect 209 0 213 0;
#X connect 210 0 198 0;
#X connect 211 0 212 0;
#X connect 212 0 191 0;
#X connect 213 0 201 0;
#X connect 214 0 197 1;
#X connect 215 0 197 1;
#X connect 216 0 191 0;
#X connect 217 0 219 0;
#X connect 218 0 220 0;
#X connect 219 0 224 0;
#X connect 220 0 219 1;
#X connect 220 0 222 0;
#X connect 220 0 225 0;
#X connect 221 0 224 1;
#X connect 224 0 192 0;
#X connect 225 0 221 1;
#X connect 225 0 223 0;
#X connect 226 0 227 0;
#X connect 226 0 231 0;
#X connect 227 0 228 0;
#X connect 228 0 229 0;
#X connect 229 0 230 0;
#X connect 229 0 200 0;
#X connect 230 0 217 1;
#X connect 231 0 232 0;
#X connect 232 0 233 0;
#X connect 233 0 234 0;
#X connect 234 0 235 0;
#X connect 235 0 230 1;
#X connect 236 0 237 0;
#X connect 236 0 241 0;
#X connect 237 0 238 0;
#X connect 238 0 239 0;
#X connect 239 0 240 0;
#X connect 239 0 200 0;
#X connect 240 0 217 0;
#X connect 241 0 242 0;
#X connect 242 0 243 0;
#X connect 243 0 244 0;
#X connect 244 0 245 0;
#X connect 245 0 240 1;
#X connect 246 0 226 1;
#X connect 246 0 236 1;
#X connect 248 0 249 0;
#X connect 249 0 218 0;
#X connect 251 0 191 0;
#X connect 251 1 201 0;
#X connect 251 2 218 0;
#X connect 251 3 198 0;
#X connect 252 0 256 0;
#X connect 252 0 421 0;
#X connect 253 0 254 0;
#X connect 254 0 7 0;
#X connect 255 0 254 1;
#X connect 256 0 415 0;
#X connect 258 0 257 0;
#X connect 258 0 263 1;
#X connect 258 0 287 0;
#X connect 259 0 260 0;
#X connect 260 0 253 1;
#X connect 261 0 282 0;
#X connect 262 0 266 0;
#X connect 263 0 264 0;
#X connect 263 0 297 0;
#X connect 266 0 263 0;
#X connect 266 0 265 0;
#X connect 268 0 262 0;
#X connect 269 0 271 0;
#X connect 270 0 274 0;
#X connect 271 0 259 0;
#X connect 272 0 273 0;
#X connect 273 0 252 0;
#X connect 274 0 262 0;
#X connect 275 0 258 1;
#X connect 276 0 258 1;
#X connect 277 0 252 0;
#X connect 278 0 280 0;
#X connect 279 0 281 0;
#X connect 280 0 285 0;
#X connect 281 0 280 1;
#X connect 281 0 283 0;
#X connect 281 0 286 0;
#X connect 282 0 285 1;
#X connect 285 0 253 0;
#X connect 286 0 282 1;
#X connect 286 0 284 0;
#X connect 287 0 288 0;
#X connect 287 0 292 0;
#X connect 288 0 289 0;
#X connect 289 0 290 0;
#X connect 290 0 291 0;
#X connect 290 0 261 0;
#X connect 291 0 278 1;
#X connect 292 0 293 0;
#X connect 293 0 294 0;
#X connect 294 0 295 0;
#X connect 295 0 296 0;
#X connect 296 0 291 1;
#X connect 297 0 298 0;
#X connect 297 0 302 0;
#X connect 298 0 299 0;
#X connect 299 0 300 0;
#X connect 300 0 301 0;
#X connect 300 0 261 0;
#X connect 301 0 278 0;
#X connect 302 0 303 0;
#X connect 303 0 304 0;
#X connect 304 0 305 0;
#X connect 305 0 306 0;
#X connect 306 0 301 1;
#X connect 307 0 287 1;
#X connect 307 0 297 1;
#X connect 309 0 310 0;
#X connect 310 0 279 0;
#X connect 312 0 252 0;
#X connect 312 1 262 0;
#X connect 312 2 279 0;
#X connect 312 3 259 0;
#X connect 313 0 317 0;
#X connect 313 0 421 0;
#X connect 314 0 315 0;
#X connect 315 0 7 0;
#X connect 316 0 315 1;
#X connect 317 0 420 0;
#X connect 319 0 318 0;
#X connect 319 0 324 1;
#X connect 319 0 348 0;
#X connect 320 0 321 0;
#X connect 321 0 314 1;
#X connect 322 0 343 0;
#X connect 323 0 327 0;
#X connect 324 0 325 0;
#X connect 324 0 358 0;
#X connect 327 0 324 0;
#X connect 327 0 326 0;
#X connect 329 0 323 0;
#X connect 330 0 332 0;
#X connect 331 0 335 0;
#X connect 332 0 320 0;
#X connect 333 0 334 0;
#X connect 334 0 313 0;
#X connect 335 0 323 0;
#X connect 336 0 319 1;
#X connect 337 0 319 1;
#X connect 338 0 313 0;
#X connect 339 0 341 0;
#X connect 340 0 342 0;
#X connect 341 0 346 0;
#X connect 342 0 341 1;
#X connect 342 0 344 0;
#X connect 342 0 347 0;
#X connect 343 0 346 1;
#X connect 346 0 314 0;
#X connect 347 0 343 1;
#X connect 347 0 345 0;
#X connect 348 0 349 0;
#X connect 348 0 353 0;
#X connect 349 0 350 0;
#X connect 350 0 351 0;
#X connect 351 0 352 0;
#X connect 351 0 322 0;
#X connect 352 0 339 1;
#X connect 353 0 354 0;
#X connect 354 0 355 0;
#X connect 355 0 356 0;
#X connect 356 0 357 0;
#X connect 357 0 352 1;
#X connect 358 0 359 0;
#X connect 358 0 363 0;
#X connect 359 0 360 0;
#X connect 360 0 361 0;
#X connect 361 0 362 0;
#X connect 361 0 322 0;
#X connect 362 0 339 0;
#X connect 363 0 364 0;
#X connect 364 0 365 0;
#X connect 365 0 366 0;
#X connect 366 0 367 0;
#X connect 367 0 362 1;
#X connect 368 0 348 1;
#X connect 368 0 358 1;
#X connect 370 0 371 0;
#X connect 371 0 340 0;
#X connect 373 0 313 0;
#X connect 373 1 323 0;
#X connect 373 2 340 0;
#X connect 373 3 320 0;
#X connect 374 0 375 0;
#X connect 375 0 382 0;
#X connect 375 0 376 0;
#X connect 377 0 13 0;
#X connect 378 0 130 0;
#X connect 379 0 69 0;
#X connect 380 0 127 0;
#X connect 381 0 72 0;
#X connect 383 0 384 0;
#X connect 386 0 423 0;
#X connect 387 0 394 0;
#X connect 387 0 399 0;
#X connect 387 0 404 0;
#X connect 387 0 409 0;
#X connect 387 0 414 0;
#X connect 387 0 419 0;
#X connect 388 0 389 0;
#X connect 388 1 390 0;
#X connect 389 0 387 0;
#X connect 390 0 391 0;
#X connect 390 0 396 0;
#X connect 390 0 401 0;
#X connect 390 0 406 0;
#X connect 390 0 411 0;
#X connect 390 0 416 0;
#X connect 391 0 393 0;
#X connect 392 0 16 0;
#X connect 392 0 26 0;
#X connect 393 0 16 0;
#X connect 393 0 26 0;
#X connect 394 0 392 0;
#X connect 395 0 394 1;
#X connect 395 0 391 1;
#X connect 396 0 398 0;
#X connect 397 0 75 0;
#X connect 397 0 85 0;
#X connect 398 0 75 0;
#X connect 398 0 85 0;
#X connect 399 0 397 0;
#X connect 400 0 399 1;
#X connect 400 0 396 1;
#X connect 401 0 403 0;
#X connect 402 0 133 0;
#X connect 402 0 143 0;
#X connect 403 0 133 0;
#X connect 403 0 143 0;
#X connect 404 0 402 0;
#X connect 405 0 404 1;
#X connect 405 0 401 1;
#X connect 406 0 408 0;
#X connect 407 0 197 0;
#X connect 407 0 207 0;
#X connect 408 0 197 0;
#X connect 408 0 207 0;
#X connect 409 0 407 0;
#X connect 410 0 409 1;
#X connect 410 0 406 1;
#X connect 411 0 413 0;
#X connect 412 0 258 0;
#X connect 412 0 268 0;
#X connect 413 0 258 0;
#X connect 413 0 268 0;
#X connect 414 0 412 0;
#X connect 415 0 414 1;
#X connect 415 0 411 1;
#X connect 416 0 418 0;
#X connect 417 0 319 0;
#X connect 417 0 329 0;
#X connect 418 0 319 0;
#X connect 418 0 329 0;
#X connect 419 0 417 0;
#X connect 420 0 419 1;
#X connect 420 0 416 1;
#X connect 421 0 386 0;
#X connect 422 0 386 0;
#X connect 423 0 388 0;
#X connect 424 0 386 0;
#X connect 425 0 386 0;
#X connect 426 0 386 0;
#X connect 427 0 422 0;
#X connect 428 0 185 0;
#X connect 428 1 189 0;
#X connect 428 2 190 0;
#X connect 428 3 251 0;
#X connect 428 4 312 0;
#X connect 428 5 373 0;
#X connect 428 6 386 0;
#X connect 429 0 386 0;
