#N canvas 1 51 656 386 10;
#X obj 188 191 dac~;
#X obj 191 102 osc~ 300;
#X floatatom 190 64 5 0 0 0 Osc_Frequency - -;
#X obj 380 19 r audio_on_off;
#X obj 381 53 tgl 15 0 empty empty empty 17 7 0 10 -262144 -1 -1 0
1;
#X msg 382 87 \; pd dsp \$1 \;;
#X obj 385 146 netreceive 3000;
#X obj 385 181 route 0 1;
#X obj 363 221 s audio_on_off;
#X obj 417 251 s frequency;
#X obj 191 20 r frequency;
#X connect 1 0 0 0;
#X connect 1 0 0 1;
#X connect 2 0 1 0;
#X connect 3 0 4 0;
#X connect 4 0 5 0;
#X connect 7 0 8 0;
#X connect 7 1 9 0;
#X connect 10 0 2 0;
