#N canvas 2 52 656 386 10;
#X obj 188 191 dac~;
#X obj 191 102 osc~ 300;
#X floatatom 190 64 5 0 0 0 Osc_Frequency - -;
#X obj 191 20 receive freq1;
#X connect 1 0 0 0;
#X connect 1 0 0 1;
#X connect 2 0 1 0;
#X connect 3 0 2 0;
