#N canvas -115 52 656 386 10;
#X obj 151 301 dac~;
#X obj -6 129 osc~ 300;
#X floatatom -6 91 5 0 0 0 Osc_Frequency - -;
#X obj 380 19 r audio_on_off;
#X obj 382 53 tgl 15 0 empty empty empty 17 7 0 10 -262144 -1 -1 0
1;
#X msg 382 87 \; pd dsp \$1 \;;
#X obj 246 20 r frequency;
#X obj 370 156 loadbang;
#X obj 371 198 delay 100;
#X obj 37 38 OSC/unpackOSC;
#X msg 374 238 \; pd dsp 1 \;;
#X obj 37 63 OSC/routeOSC /frequency /volume /timbre;
#X obj 80 129 phasor~ 300;
#X floatatom 80 92 5 0 0 0 - - -;
#X floatatom 247 154 5 0 0 0 - - -;
#X obj 151 277 *~;
#X obj 247 182 / 600;
#X obj 10 257 *~;
#X obj 85 240 *~;
#X floatatom 100 156 5 0 0 0 - - -;
#X obj 31 192 -;
#X obj 28 229 / 1023;
#X obj 28 229 / 1023;
#X obj 28 229 / 1023;
#X obj 103 213 / 1023;
#X floatatom 26 165 5 0 0 0 - - -;
#X msg -60 150 1023;
#X obj 36 13 iemnet/udpreceive 9002;
#X connect 1 0 17 0;
#X connect 2 0 1 0;
#X connect 3 0 4 0;
#X connect 4 0 5 0;
#X connect 7 0 8 0;
#X connect 8 0 10 0;
#X connect 9 0 11 0;
#X connect 11 0 2 0;
#X connect 11 0 13 0;
#X connect 11 1 14 0;
#X connect 11 2 19 0;
#X connect 12 0 18 0;
#X connect 13 0 12 0;
#X connect 14 0 16 0;
#X connect 15 0 0 0;
#X connect 15 0 0 1;
#X connect 16 0 15 1;
#X connect 17 0 15 0;
#X connect 18 0 15 0;
#X connect 19 0 20 1;
#X connect 19 0 24 0;
#X connect 20 0 21 0;
#X connect 21 0 17 1;
#X connect 24 0 18 1;
#X connect 25 0 20 0;
#X connect 26 0 25 0;
#X connect 27 0 9 0;
