#N canvas 520 38 1047 866 10;
#X obj 147 361 dac~;
#X obj -46 82 osc~ 300;
#X floatatom -46 44 5 0 0 0 Osc_Frequency - -;
#X obj 818 -164 r audio_on_off;
#X obj 820 -130 tgl 15 0 empty empty empty 17 7 0 10 -262144 -1 -1
0 1;
#X msg 820 -96 \; pd dsp \$1 \;;
#X obj 818 -191 r frequency;
#X obj 808 -27 loadbang;
#X obj 809 15 delay 100;
#X msg 812 55 \; pd dsp 1 \;;
#X obj 40 82 phasor~ 300;
#X floatatom 40 45 5 0 0 0 - - -;
#X floatatom 284 107 5 0 0 0 - - -;
#X obj 147 302 *~;
#X obj 284 135 / 600;
#X obj -30 210 *~;
#X obj 45 193 *~;
#X floatatom 205 110 5 0 0 0 - - -;
#X obj -12 182 / 1023;
#X obj -12 182 / 1023;
#X obj -12 182 / 1023;
#X obj 63 166 / 1023;
#X obj -48 -187 hsl 128 50 0 1023 0 0 empty empty empty -2 -8 0 10
-4032 -1 -1 200 1;
#X obj 266 -180 hsl 128 50 0 1023 0 0 empty empty empty -2 -8 0 10
-4034 -1 -1 6700 1;
#X obj 110 -184 hsl 128 50 0 600 0 0 empty empty empty -2 -8 0 10 -260097
-1 -1 0 1;
#X obj -51 -117 hsl 128 15 0 127 0 0 empty empty empty -2 -8 0 10 -262144
-1 -1 7700 1;
#X obj -46 -92 mtof;
#X obj -9 145 + 1023;
#X obj -9 122 * -1;
#N canvas 0 22 450 278 (subpatch) 0;
#X array output 200 float 3;
#A 0 0 0 0 0 0 0 0 0 0 0 0 0 0 0 0 0 0 0 0 0 0 0 0 0 0 0 0 0 0 0 0
0 0 0 0 0 0 0 0 0 0 0 0 0 0 0 0 0 0 0 0 0 0 0 0 0 0 0 0 0 0 0 0 0 0
0 0 0 0 0 0 0 0 0 0 0 0 0 0 0 0 0 0 0 0 0 0 0 0 0 0 0 0 0 0 0 0 0 0
0 0 0 0 0 0 0 0 0 0 0 0 0 0 0 0 0 0 0 0 0 0 0 0 0 0 0 0 0 0 0 0 0 0
0 0 0 0 0 0 0 0 0 0 0 0 0 0 0 0 0 0 0 0 0 0 0 0 0 0 0 0 0 0 0 0 0 0
0 0 0 0 0 0 0 0 0 0 0 0 0 0 0 0 0 0 0 0 0 0 0 0 0 0 0 0 0 0 0 0 0;
#X coords 0 1 199 -1 200 140 1;
#X restore 423 149 graph;
#X obj 319 327 tgl 15 0 empty empty empty 17 7 0 10 -262144 -1 -1 1
1;
#X obj 319 347 metro 100;
#X obj 322 387 tabwrite~ output;
#X connect 1 0 15 0;
#X connect 2 0 1 0;
#X connect 3 0 4 0;
#X connect 4 0 5 0;
#X connect 7 0 8 0;
#X connect 8 0 9 0;
#X connect 10 0 16 0;
#X connect 11 0 10 0;
#X connect 12 0 14 0;
#X connect 13 0 0 0;
#X connect 13 0 0 1;
#X connect 13 0 32 0;
#X connect 14 0 13 1;
#X connect 15 0 13 0;
#X connect 16 0 13 0;
#X connect 17 0 21 0;
#X connect 17 0 28 0;
#X connect 18 0 15 1;
#X connect 21 0 16 1;
#X connect 23 0 17 0;
#X connect 24 0 12 0;
#X connect 25 0 26 0;
#X connect 26 0 2 0;
#X connect 26 0 11 0;
#X connect 27 0 18 0;
#X connect 28 0 27 0;
#X connect 30 0 31 0;
#X connect 31 0 32 0;
